<?xml version="1.0" standalone="no"?>
<!DOCTYPE svg PUBLIC "-//W3C//DTD SVG 20010904//EN"
 "http://www.w3.org/TR/2001/REC-SVG-20010904/DTD/svg10.dtd">
<svg version="1.0" xmlns="http://www.w3.org/2000/svg"
 width="303.000000pt" height="254.000000pt" viewBox="0 0 303.000000 254.000000"
 preserveAspectRatio="xMidYMid meet">

<g transform="translate(0.000000,254.000000) scale(0.100000,-0.100000)"
fill="#000000" stroke="none">
<path d="M1211 2204 c-211 -208 -310 -312 -307 -323 3 -9 6 -95 8 -191 3 -163
2 -175 -15 -178 -10 -2 -97 22 -192 54 -96 32 -175 56 -177 54 -2 -3 -80 -110
-174 -238 -93 -128 -207 -285 -253 -348 l-84 -116 319 -319 c305 -306 321
-320 374 -335 73 -20 294 -89 562 -175 119 -38 226 -69 238 -69 11 0 40 9 63
19 57 26 452 195 552 237 120 50 368 158 386 169 17 10 76 81 239 290 52 66
129 164 172 218 43 54 78 101 78 105 -1 7 -132 166 -429 520 -79 95 -149 172
-156 172 -7 0 -43 -11 -79 -25 -106 -40 -115 -37 -188 53 -34 42 -108 131
-163 196 -55 66 -113 135 -129 155 -158 192 -314 375 -325 379 -4 1 -148 -135
-320 -304z m624 -139 c106 -126 209 -249 230 -272 20 -24 32 -43 26 -43 -29 0
-358 84 -369 94 -19 18 -183 513 -182 549 1 17 69 -58 295 -328z m-269 120
c34 -93 79 -213 99 -265 45 -116 64 -5 -168 -989 l-62 -264 -120 -103 c-98
-84 -121 -100 -127 -86 -4 9 -32 139 -63 287 -31 149 -72 344 -91 435 -32 148
-36 190 -46 418 -6 139 -9 254 -7 256 4 4 182 -13 187 -18 1 -2 -5 -174 -13
-382 -18 -416 -17 -525 2 -349 7 61 26 228 43 372 16 145 30 279 30 300 0 27
18 68 74 162 83 142 145 262 125 243 -8 -7 -61 -79 -119 -160 l-105 -147 -103
-3 c-57 -1 -102 1 -100 6 1 5 64 65 138 134 74 69 185 176 245 237 61 61 112
105 114 98 2 -6 32 -88 67 -182z m872 -538 c12 -17 41 -55 65 -83 44 -53 137
-166 197 -240 19 -24 59 -70 88 -104 30 -33 51 -60 48 -60 -17 0 -286 114
-311 133 -45 32 -347 299 -343 303 4 3 219 82 228 83 3 0 15 -14 28 -32z
m-1819 -129 c60 -24 59 -15 12 -171 l-27 -88 -103 -84 c-56 -47 -100 -85 -98
-85 3 0 54 27 113 60 59 33 108 59 109 57 1 -1 23 -42 50 -92 68 -128 249
-458 373 -678 57 -103 103 -189 101 -192 -2 -2 -120 53 -261 122 l-257 126
-39 86 c-22 47 -70 150 -107 227 -76 159 -68 153 -189 155 -33 0 -82 4 -107 7
l-46 7 76 102 c122 164 164 222 250 346 45 64 86 117 90 117 5 0 32 -10 60
-22z m213 -155 c37 -26 66 -49 64 -50 -5 -6 -249 -54 -252 -50 -2 2 2 21 9 43
8 21 20 67 27 101 l13 63 36 -30 c20 -17 66 -52 103 -77z m1548 5 c47 -30 100
-62 118 -72 17 -9 32 -24 32 -33 0 -18 -380 -787 -405 -818 -11 -14 -9 -3 6
35 11 30 28 75 36 100 9 25 35 99 60 165 78 211 114 317 109 322 -3 3 -47 -13
-98 -35 -51 -22 -142 -61 -201 -87 -60 -26 -111 -44 -114 -42 -3 3 46 99 110
214 63 114 131 240 153 279 l38 72 36 -23 c19 -12 73 -47 120 -77z m-2120
-439 c100 -14 111 -18 130 -56 8 -15 55 -100 103 -188 116 -208 160 -296 152
-303 -3 -3 -128 116 -277 265 -238 239 -269 273 -257 287 8 9 24 14 39 11 14
-2 63 -10 110 -16z m1945 -6 c-4 -10 -15 -40 -26 -68 -10 -27 -43 -113 -73
-190 l-55 -140 -125 -55 -124 -55 -78 -100 c-120 -155 -184 -235 -189 -235 -8
0 -145 348 -145 367 0 11 42 9 197 -7 50 -6 104 -10 120 -9 32 1 -134 41 -244
60 -40 6 -73 15 -73 19 0 4 39 27 88 51 173 88 489 254 602 316 63 35 119 63
124 63 4 0 5 -8 1 -17z m-801 -761 c32 -41 53 -73 45 -70 -8 3 -63 27 -123 54
l-109 48 49 43 c49 44 49 44 64 22 7 -12 41 -55 74 -97z"/>
</g>
</svg>
